<svg id="visual" viewBox="0 0 900 600" width="900" height="600" xmlns="http://www.w3.org/2000/svg" xmlns:xlink="http://www.w3.org/1999/xlink" version="1.1"><rect x="0" y="0" width="900" height="600" fill="#fff"></rect><path d="M0 232L25 233.7C50 235.3 100 238.7 150 246.2C200 253.7 250 265.3 300 273.3C350 281.3 400 285.7 450 298.2C500 310.7 550 331.3 600 341C650 350.7 700 349.3 750 332.5C800 315.7 850 283.3 875 267.2L900 251L900 601L875 601C850 601 800 601 750 601C700 601 650 601 600 601C550 601 500 601 450 601C400 601 350 601 300 601C250 601 200 601 150 601C100 601 50 601 25 601L0 601Z" fill="#8ad0f6"></path><path d="M0 272L25 283.2C50 294.3 100 316.7 150 336.8C200 357 250 375 300 366.2C350 357.3 400 321.7 450 323.3C500 325 550 364 600 375C650 386 700 369 750 354.5C800 340 850 328 875 322L900 316L900 601L875 601C850 601 800 601 750 601C700 601 650 601 600 601C550 601 500 601 450 601C400 601 350 601 300 601C250 601 200 601 150 601C100 601 50 601 25 601L0 601Z" fill="#6aa9d1"></path><path d="M0 363L25 367.3C50 371.7 100 380.3 150 382C200 383.7 250 378.3 300 377.3C350 376.3 400 379.7 450 388.3C500 397 550 411 600 410.3C650 409.7 700 394.3 750 385.5C800 376.7 850 374.3 875 373.2L900 372L900 601L875 601C850 601 800 601 750 601C700 601 650 601 600 601C550 601 500 601 450 601C400 601 350 601 300 601C250 601 200 601 150 601C100 601 50 601 25 601L0 601Z" fill="#4c84ac"></path><path d="M0 421L25 420.5C50 420 100 419 150 429.3C200 439.7 250 461.3 300 469.3C350 477.3 400 471.7 450 475.2C500 478.7 550 491.3 600 497.7C650 504 700 504 750 489.7C800 475.3 850 446.7 875 432.3L900 418L900 601L875 601C850 601 800 601 750 601C700 601 650 601 600 601C550 601 500 601 450 601C400 601 350 601 300 601C250 601 200 601 150 601C100 601 50 601 25 601L0 601Z" fill="#2e6188"></path><path d="M0 521L25 524.3C50 527.7 100 534.3 150 527.5C200 520.7 250 500.3 300 499C350 497.7 400 515.3 450 521C500 526.7 550 520.3 600 518.3C650 516.3 700 518.7 750 517.7C800 516.7 850 512.3 875 510.2L900 508L900 601L875 601C850 601 800 601 750 601C700 601 650 601 600 601C550 601 500 601 450 601C400 601 350 601 300 601C250 601 200 601 150 601C100 601 50 601 25 601L0 601Z" fill="#0c4066"></path></svg>
